<?xml version="1.0" encoding="UTF-8" standalone="no"?>
<!-- Created with Inkscape (http://www.inkscape.org/) -->

<svg
   width="210mm"
   height="297mm"
   viewBox="0 0 210 297"
   version="1.1"
   id="svg5"
   inkscape:version="1.1.2 (b8e25be833, 2022-02-05)"
   sodipodi:docname="5g-for-the-win.svg"
   xmlns:inkscape="http://www.inkscape.org/namespaces/inkscape"
   xmlns:sodipodi="http://sodipodi.sourceforge.net/DTD/sodipodi-0.dtd"
   xmlns="http://www.w3.org/2000/svg"
   xmlns:svg="http://www.w3.org/2000/svg">
  <sodipodi:namedview
     id="namedview7"
     pagecolor="#ffffff"
     bordercolor="#666666"
     borderopacity="1.0"
     inkscape:pageshadow="2"
     inkscape:pageopacity="0.0"
     inkscape:pagecheckerboard="0"
     inkscape:document-units="mm"
     showgrid="false"
     inkscape:zoom="0.75633418"
     inkscape:cx="397.31115"
     inkscape:cy="561.92093"
     inkscape:window-width="1920"
     inkscape:window-height="1009"
     inkscape:window-x="-8"
     inkscape:window-y="-8"
     inkscape:window-maximized="1"
     inkscape:current-layer="layer1" />
  <defs
     id="defs2" />
  <g
     inkscape:label="Ebene 1"
     inkscape:groupmode="layer"
     id="layer1">
    <rect
       style="fill:#00ff00;stroke:#ffffff;stroke-width:1;stroke-linecap:round;stroke-linejoin:round"
       id="rect2678"
       width="128.03534"
       height="60.869259"
       x="28.864857"
       y="94.828712"
       inkscape:export-filename="C:\Users\marc\rect2678.png"
       inkscape:export-xdpi="207.85001"
       inkscape:export-ydpi="207.85001" />
    <g
       id="g4734"
       transform="translate(6.6728995,8.3566824)"
       inkscape:export-filename="C:\Users\marc\rect2678.png"
       inkscape:export-xdpi="207.85001"
       inkscape:export-ydpi="207.85001">
      <path
         d="m 58.724674,126.42407 c -0.735568,0.48174 -1.621644,0.69559 -2.524098,0.60869 -0.991391,-0.0955 -1.822754,-0.50033 -2.501528,-1.21828 -1.30834,-1.38379 -1.427193,-3.48178 -0.286916,-5.0631 0.152404,-0.21115 0.246759,-0.30747 0.590343,-0.60231 0.549885,-0.4724 0.986094,-0.70686 1.58129,-0.85204 1.460597,-0.35601 2.884862,0.0652 3.883608,1.1487 0.994655,1.07905 1.302272,2.5513 0.829485,3.96903 -0.263688,0.79077 -0.843673,1.53198 -1.572173,2.00934 z m -8.846517,-4.07759 c -0.188893,0.0471 -2.352447,-0.12556 -2.526664,-0.2019 -0.115465,-0.0505 -0.164629,-0.0979 -0.379332,-0.36378 -0.203453,-0.25265 -0.25239,-0.33045 -0.279248,-0.4471 -0.0377,-0.1641 0.03857,-1.01151 0.140549,-1.56091 0.224274,-1.20797 0.783557,-2.48533 1.518762,-3.46899 0.405716,-0.54283 0.678271,-0.82811 1.287914,-1.34756 0.609639,-0.51948 0.934572,-0.74331 1.534895,-1.05771 1.08782,-0.56968 2.436814,-0.91898 3.666188,-0.94908 0.630749,-0.0147 1.440044,0.0478 1.584195,0.12335 0.160258,0.0844 0.600527,0.55531 0.665749,0.71227 0.06272,0.15114 -0.106359,2.38675 -0.1956,2.58346 -0.08068,0.17819 -0.312958,0.37861 -0.501312,0.43203 -0.07927,0.0222 -0.260539,0.0222 -0.440487,-0.004 -0.417737,-0.0589 -0.98349,-0.0474 -1.441986,0.0296 -2.040835,0.33749 -3.635692,1.92866 -3.98659,3.97738 -0.03519,0.20411 -0.06631,0.51011 -0.06976,0.67941 -0.0036,0.18151 -0.03075,0.36007 -0.06617,0.43551 -0.08258,0.17595 -0.329628,0.38308 -0.512722,0.42715 z m -6.487018,-0.5021 c -0.18093,0.0438 -2.489045,-0.15189 -2.6017,-0.22043 -0.05164,-0.0296 -0.196006,-0.18486 -0.32963,-0.35081 -0.194228,-0.24006 -0.243647,-0.32081 -0.269874,-0.43462 -0.06224,-0.27006 0.12388,-1.85012 0.328074,-2.78562 0.325702,-1.49233 1.021561,-3.21095 1.833053,-4.52739 1.825704,-2.96184 4.647976,-5.21653 7.910385,-6.31937 1.210715,-0.40932 2.67436,-0.69753 3.883838,-0.76472 0.956062,-0.0533 2.545557,0.0147 2.802391,0.11811 0.108214,0.044 0.179819,0.10636 0.386284,0.33563 0.143143,0.15894 0.270874,0.32527 0.29425,0.38135 0.05376,0.13189 -0.13006,2.48019 -0.205898,2.6297 -0.07075,0.13929 -0.304401,0.33563 -0.462743,0.38942 -0.08506,0.0297 -0.280138,0.0259 -0.594719,-0.0118 -1.654458,-0.19115 -3.583864,0.0826 -5.251024,0.7452 -1.212441,0.48185 -2.157179,1.05388 -3.179524,1.92503 -1.022352,0.87113 -1.736989,1.7132 -2.405252,2.83371 -0.918839,1.54086 -1.495405,3.40235 -1.569158,5.06621 -0.01407,0.31637 -0.04124,0.50967 -0.08309,0.58898 -0.08391,0.15967 -0.331815,0.36452 -0.484249,0.4029 z m -6.558762,-0.53743 c -0.194339,0.0555 -2.398049,-0.13447 -2.534021,-0.21818 -0.0606,-0.0374 -0.195858,-0.18004 -0.338409,-0.35713 -0.193969,-0.23969 -0.243646,-0.32081 -0.26969,-0.4342 -0.04734,-0.20597 0.09021,-1.59096 0.25339,-2.5515 0.671154,-3.95074 2.404956,-7.59303 5.030024,-10.56688 0.803958,-0.91086 1.041288,-1.14037 2.215339,-2.14078 1.174058,-1.00037 1.439251,-1.19715 2.465213,-1.84748 3.352774,-2.11981 7.224083,-3.253574 11.231267,-3.28918 0.974259,-0.0079 2.363543,0.07513 2.559368,0.15485 0.107913,0.0438 0.179781,0.10636 0.385909,0.33526 0.151812,0.16892 0.271135,0.32562 0.298918,0.3908 0.0655,0.15743 -0.101511,2.35656 -0.193228,2.54504 -0.08791,0.18041 -0.317478,0.37368 -0.509229,0.42903 -0.09295,0.0259 -0.403042,0.0259 -0.859929,-0.007 -1.942119,-0.13299 -3.626083,0.007 -5.472933,0.45143 -2.284818,0.5514 -4.245189,1.45249 -6.284003,2.88843 -0.761145,0.53613 -2.002647,1.6456 -2.730395,2.44044 -1.38998,1.51827 -2.488844,3.23984 -3.290212,5.15563 -0.733154,1.75269 -1.137562,3.39323 -1.314338,5.33193 -0.0416,0.45595 -0.08824,0.76277 -0.12929,0.85015 -0.08339,0.17782 -0.327629,0.38672 -0.513589,0.44021 z"
         id="path26127"
         style="fill:#000000;stroke:none;stroke-width:0.980151"
         inkscape:connector-curvature="0" />
      <text
         xml:space="preserve"
         style="font-size:10.5833px;line-height:1.25;font-family:sans-serif;text-align:center;text-anchor:middle;stroke-width:0.264583"
         x="100.83965"
         y="127.45638"
         id="text1310"><tspan
           sodipodi:role="line"
           id="tspan1308"
           style="stroke-width:0.264583"
           x="102.21548"
           y="127.45638"><tspan
   style="font-weight:bold"
   id="tspan3736">5G</tspan> For the Win </tspan></text>
    </g>
  </g>
</svg>
